<svg width="21" height="19" viewBox="0 0 21 19" fill="none" xmlns="http://www.w3.org/2000/svg">
<g id="logo farcaster 1" clip-path="url(#clip0_328_178)">
<path id="Vector" d="M3.55839 0.046875H16.862V2.73035H20.6458L19.8526 5.41382H19.1811V16.2695C19.5181 16.2695 19.7914 16.5425 19.7914 16.8795V17.6113H19.9135C20.2504 17.6113 20.5237 17.8842 20.5237 18.2212V18.953H13.6887V18.2212C13.6887 17.8842 13.962 17.6113 14.299 17.6113H14.4211V16.8795C14.4211 16.5864 14.6278 16.3419 14.9033 16.2829L14.8902 10.2929C14.6742 7.89918 12.6616 6.02377 10.2103 6.02377C7.75906 6.02377 5.74618 7.89918 5.53048 10.2929L5.51706 16.2779C5.84286 16.3262 6.24353 16.5772 6.24353 16.8795V17.6113H6.36564C6.70261 17.6113 6.97587 17.8842 6.97587 18.2212V18.953H0.140902V18.2212C0.140902 17.8842 0.414167 17.6113 0.751137 17.6113H0.87324V16.8795C0.87324 16.5425 1.1465 16.2695 1.48348 16.2695V5.41382H0.812328L0.0187988 2.73035H3.55839V0.046875Z" fill="black"/>
<path id="Vector_2" d="M16.8649 0.0468679H16.9096V0.00244141H16.8649V0.0468679ZM3.56126 0.0468679V0.00244141H3.51656V0.0468679H3.56126ZM16.8649 2.73034H16.8205V2.77504H16.8649V2.73034ZM20.6487 2.73034L20.6914 2.74291L20.7082 2.68591H20.6487V2.73034ZM19.8552 5.41381V5.45852H19.8887L19.8979 5.42638L19.8552 5.41381ZM19.184 5.41381V5.36938H19.1393V5.41381H19.184ZM19.184 16.2698H19.1393V16.3142H19.184V16.2698ZM19.7942 17.6112H19.7495V17.656H19.7942V17.6112ZM20.5266 18.9533V18.9977H20.571V18.9533H20.5266ZM13.6916 18.9533H13.6469V18.9977H13.6916V18.9533ZM14.424 17.6112V17.656H14.4684V17.6112H14.424ZM14.9062 16.2832L14.9154 16.3265L14.9509 16.319L14.9506 16.2829L14.9062 16.2832ZM14.8928 10.2929L14.9375 10.2926V10.2909L14.9372 10.289L14.8928 10.2929ZM5.53307 10.2929L5.48892 10.289L5.48864 10.2909V10.2926L5.53307 10.2929ZM5.51994 16.2782L5.47551 16.2779L5.47523 16.3165L5.51351 16.322L5.51994 16.2782ZM6.24641 17.6112H6.2017V17.656H6.24641V17.6112ZM6.97875 18.9533V18.9977H7.02317V18.9533H6.97875ZM0.143776 18.9533H0.09907V18.9977H0.143776V18.9533ZM0.876114 17.6112V17.656H0.920541V17.6112H0.876114ZM1.48635 16.2698V16.3142H1.53078V16.2698H1.48635ZM1.48635 5.41381H1.53078V5.36938H1.48635V5.41381ZM0.814923 5.41381L0.772173 5.42638L0.781673 5.45852H0.814923V5.41381ZM0.0216729 2.73034V2.68591H-0.0378418L-0.0210771 2.74291L0.0216729 2.73034ZM3.56126 2.73034V2.77504H3.60569V2.73034H3.56126ZM16.8649 0.00244141H3.56126V0.0912944H16.8649V0.00244141ZM16.9096 2.73034V0.0468679H16.8205V2.73034H16.9096ZM20.6487 2.68591H16.8649V2.77504L20.6487 2.77477V2.68591ZM19.8979 5.42638L20.6914 2.74291L20.6059 2.71776L19.8124 5.40124L19.8979 5.42638ZM19.184 5.45824L19.8552 5.45852V5.36938H19.184V5.45824ZM19.2284 16.2695V5.41381H19.1393V16.2698L19.2284 16.2695ZM19.8387 16.8795C19.8387 16.5182 19.5456 16.2251 19.184 16.2251V16.3142C19.4964 16.3142 19.7495 16.5671 19.7495 16.8795H19.8387ZM19.8387 17.6112V16.8795H19.7495V17.6112H19.8387ZM19.9163 17.5668H19.7942V17.656H19.9163V17.5668ZM20.571 18.2212C20.571 17.8599 20.2779 17.5668 19.9163 17.5668V17.656C20.2287 17.656 20.4819 17.9091 20.4819 18.2212H20.571ZM20.571 18.9533V18.2212H20.4819V18.953L20.571 18.9533ZM16.8649 18.9977H20.5266V18.9086H16.8649V18.9977ZM14.9121 18.9977H16.8649V18.9086H14.9121V18.9977ZM13.6916 18.9977H14.9121V18.9086H13.6916V18.9977ZM13.6469 18.2212V18.9533L13.736 18.953V18.2212H13.6469ZM14.3018 17.5668C13.94 17.5668 13.6469 17.8599 13.6469 18.2212H13.736C13.736 17.9091 13.9895 17.656 14.3018 17.656V17.5668ZM14.424 17.5668H14.3018V17.656H14.424V17.5668ZM14.3792 16.8795V17.6112H14.4684V16.8795H14.3792ZM14.897 16.2396C14.6011 16.3025 14.3792 16.5651 14.3792 16.8795H14.4684C14.4684 16.6079 14.6601 16.381 14.9154 16.3265L14.897 16.2396ZM14.8484 10.2929L14.8615 16.2832L14.9506 16.2829L14.9375 10.2926L14.8484 10.2929ZM10.2129 6.06819C12.641 6.06819 14.6349 7.926 14.8487 10.2968L14.9372 10.2887C14.7196 7.87263 12.6877 5.97934 10.2129 5.97934V6.06819ZM5.5775 10.2968C5.79125 7.926 7.78513 6.06819 10.2129 6.06819V5.97934C7.73847 5.97934 5.70658 7.87263 5.48892 10.2887L5.5775 10.2968ZM5.56436 16.2782L5.57778 10.2929L5.48864 10.2926L5.47551 16.2779L5.56436 16.2782ZM6.29083 16.8795C6.29083 16.7082 6.17795 16.5581 6.0321 16.4481C5.88541 16.3369 5.69681 16.2592 5.52636 16.234L5.51351 16.322C5.66886 16.345 5.8435 16.4168 5.97845 16.519C6.11425 16.6219 6.2017 16.7484 6.2017 16.8795H6.29083ZM6.29083 17.6112V16.8795H6.2017V17.6112H6.29083ZM6.36851 17.5668H6.24641V17.656H6.36851V17.5668ZM7.02317 18.2212C7.02317 17.8599 6.73007 17.5668 6.36851 17.5668V17.656C6.68089 17.656 6.93404 17.9091 6.93404 18.2212H7.02317ZM7.02317 18.9533V18.2212H6.93404V18.953L7.02317 18.9533ZM5.51407 18.9977H6.97875V18.9086H5.51407V18.9977ZM5.41209 18.9977H5.51407V18.9086H5.41209V18.9977ZM3.56126 18.9977H5.41209V18.9086H3.56126V18.9977ZM0.143776 18.9977H3.56126V18.9086H0.143776V18.9977ZM0.09907 18.2212V18.9533L0.188202 18.953V18.2212H0.09907ZM0.754011 17.5668C0.392173 17.5668 0.09907 17.8599 0.09907 18.2212H0.188202C0.188202 17.9091 0.441629 17.656 0.754011 17.656V17.5668ZM0.876114 17.5668H0.754011V17.656H0.876114V17.5668ZM0.831408 16.8795V17.6112H0.920541V16.8795H0.831408ZM1.48635 16.2251C1.12451 16.2251 0.831408 16.5182 0.831408 16.8795H0.920541C0.920541 16.5671 1.17397 16.3142 1.48635 16.3142V16.2251ZM1.44164 5.41381V16.2695L1.53078 16.2698V5.41381H1.44164ZM0.814923 5.45852L1.48635 5.45824V5.36938H0.814923V5.45852ZM-0.0210771 2.74291L0.772173 5.42638L0.857673 5.40124L0.0644229 2.71776L-0.0210771 2.74291ZM3.56126 2.68591H0.0216729V2.77477H3.56098V2.68591H3.56126ZM3.51656 0.0468679V2.73034H3.60569V0.0468679H3.51656Z" fill="black"/>
</g>
<defs>
<clipPath id="clip0_328_178">
<rect width="20.6765" height="19" fill="white"/>
</clipPath>
</defs>
</svg>
