<svg width="20" height="20" viewBox="0 0 20 20" fill="none" xmlns="http://www.w3.org/2000/svg">
<g id="&#240;&#159;&#166;&#134; icon &#34;github&#34;">
<path id="Vector" d="M10.0006 0.000625031C4.4759 0.000625031 0 4.48028 0 10.0013C0 14.4222 2.86518 18.1693 6.83605 19.4912C7.33796 19.5856 7.51922 19.2762 7.51922 19.0087C7.51922 18.7712 7.5136 18.143 7.50984 17.3092C4.72655 17.9117 4.14026 15.9647 4.14026 15.9647C3.68461 14.8122 3.02706 14.5028 3.02706 14.5028C2.12201 13.8846 3.09894 13.8977 3.09894 13.8977C4.10151 13.9659 4.62904 14.9259 4.62904 14.9259C5.52097 16.456 6.96919 16.0135 7.54235 15.756C7.62985 15.1116 7.89049 14.6684 8.17426 14.4215C5.95412 14.1709 3.6196 13.3115 3.6196 9.47934C3.6196 8.3849 4.00713 7.49359 4.64779 6.79355C4.53716 6.54291 4.19839 5.5241 4.73592 4.14651C4.73592 4.14651 5.57285 3.87962 7.48609 5.1722C8.28677 4.95031 9.13682 4.83968 9.98625 4.83405C10.8363 4.83968 11.6857 4.95093 12.4864 5.1722C14.3884 3.87962 15.2247 4.14651 15.2247 4.14651C15.7616 5.5241 15.4228 6.54228 15.3253 6.79355C15.9597 7.49359 16.3473 8.38552 16.3473 9.47934C16.3473 13.3202 14.0096 14.1671 11.787 14.4115C12.1345 14.7109 12.4602 15.3266 12.4602 16.261C12.4602 17.5986 12.4477 18.6762 12.4477 19.0018C12.4477 19.2618 12.6227 19.5744 13.1377 19.4737C17.1379 18.1655 20 14.4153 20 10.0006C20 4.47966 15.5241 0 9.99938 0L10.0006 0.000625031Z" fill="black"/>
</g>
</svg>
