<svg xmlns="http://www.w3.org/2000/svg" width="18" height="22" viewBox="0 0 18 22" fill="none">
<g clip-path="url(#clip0_433_1379)">
<path d="M2.39258 6.73828C2.39258 8.69141 3.60352 10.0586 5.92773 10.7031L10.8398 12.0898C12.4512 12.5488 13.2812 13.3789 13.2812 14.5508V15.2344H14.8535V14.5508C14.8535 12.6074 13.6426 11.2402 11.3184 10.5957L6.40625 9.20898C4.80469 8.75977 3.96484 7.91016 3.96484 6.73828V6.06445H2.39258V6.73828ZM5.9668 0.429688C5.60547 0.0683594 5.09766 0.00976562 4.50195 0.00976562H1.86523C1.2793 0.00976562 0.771484 0.0683594 0.410156 0.429688C0.0488281 0.791016 0 1.28906 0 1.875V4.51172C0 5.10742 0.0488281 5.61523 0.410156 5.9668C0.771484 6.32812 1.2793 6.38672 1.875 6.38672H4.50195C5.09766 6.38672 5.60547 6.32812 5.9668 5.9668C6.31836 5.61523 6.37695 5.10742 6.37695 4.51172V1.88477C6.37695 1.28906 6.31836 0.791016 5.9668 0.429688ZM16.8359 15.3125C16.4746 14.9512 15.9668 14.8926 15.3711 14.8926H12.7344C12.1484 14.8926 11.6406 14.9512 11.2793 15.3125C10.918 15.6738 10.8691 16.1719 10.8691 16.7578V19.3945C10.8691 19.9902 10.918 20.498 11.2793 20.8496C11.6406 21.2109 12.1484 21.2598 12.7344 21.2598H15.3711C15.9668 21.2598 16.4746 21.2109 16.8359 20.8496C17.1875 20.498 17.2363 19.9902 17.2363 19.3945V16.7578C17.2363 16.1719 17.1875 15.6738 16.8359 15.3125Z" fill="white" fill-opacity="0.85"/>
</g>
<defs>
<clipPath id="clip0_433_1379">
<rect width="17.2363" height="21.2598" fill="white"/>
</clipPath>
</defs>
</svg>
